{"title":"Our Girl (2013) TV Movie pilot - Drama x264 RB58","uid":11070396,"size":985531700,"categoryP":"video","categoryS":"tv_shows","magnet":"?xt=urn:btih:74c145ec926d3a16c06ac19e49071506748b4316&amp;dn=Our+Girl+%282013%29+TV+Movie+pilot+-+Drama+x264+RB58&amp;tr=udp%3A%2F%2Ftracker.openbittorrent.com%3A80&amp;tr=udp%3A%2F%2Fopen.demonii.com%3A1337&amp;tr=udp%3A%2F%2Ftracker.coppersurfer.tk%3A6969&amp;tr=udp%3A%2F%2Fexodus.desync.com%3A6969","seeders":1,"leechers":0,"uploader":"RedBaron58","files":1,"time":1411257425,"description":"Our Girl (2013) TV Movie pilot - Drama x264 mp4\n &lt;a href=&quot;\nhttp://www.imdb.com/title/tt2485988/&quot; rel=&quot;nofollow&quot; target=&quot;_NEW&quot;&gt;\nhttp://www.imdb.com/title/tt2485988/&lt;/a&gt;\n\nTrailer:\n\n\nThank you for your kind comments and thumbs ups on my other torrents, your feedback is welcome.\n\n\nAbout the Film:\nOur Girl is the story of an 18 year old girl Molly Dawes who lives in a crowded Newham council house with \nher underclass family. She lives with her pregnant mum Belinda (played by Kerry Godliman), her dad \nDave (Sean Gallagher) and five siblings who seem to have little future ahead of them. \nShe also has an Albanian boyfriend named Artan, who later asks for her hand in marriage.\nOn the night of her 18th birthday, Molly Dawes finds herself drunk and is sick in the doorway of an \narmy recruitment office. She sees a life-size image of an army girl. \nThe next day she returns to the recruitment office with the ambition to be a part of the army. \n\nUploader Note:\nThere follows full 5-episode series (New), which I will be uploading shortly as well.\n\n\nI hope you enjoy.\n\n\nTechnical:\n\nGeneral\nComplete name                            : H:Our Girl (2013) x264 RB58.mp4\nFormat                                   : MPEG-4\nFormat profile                           : Base Media\nCodec ID                                 : isom\nFile size                                : 940 MiB\nDuration                                 : 1h 27mn\nOverall bit rate mode                    : Variable\nOverall bit rate                         : 1 500 Kbps\nWriting application                      : Lavf54.63.104\n\nVideo\nID                                       : 1\nFormat                                   : AVC\nFormat/Info                              : Advanced Video Codec\nFormat profile                           : &lt;a class=&quot;__cf_email__&quot; href=&quot;/cdn-cgi/l/email-protection&quot; data-cfemail=&quot;7139181619313d425f41&quot;&gt;[email&amp;#160;protected]&lt;/a&gt;&lt;script data-cfhash='f9e31' type=&quot;text/javascript&quot;&gt;\n/* &lt;![CDATA[ */!function(){try{var t=&quot;currentScript&quot;in document?document.currentScript:function(){for(var t=document.getElementsByTagName(&quot;script&quot;),e=t.length;e--;)if(t[e].getAttribute(&quot;data-cfhash&quot;))return t[e]}();if(t&amp;&amp;t.previousSibling){var e,r,n,i,c=t.previousSibling,a=c.getAttribute(&quot;data-cfemail&quot;);if(a){for(e=&quot;&quot;,r=parseInt(a.substr(0,2),16),n=2;a.length-n;n+=2)i=parseInt(a.substr(n,2),16)^r,e+=String.fromCharCode(i);e=document.createTextNode(e),c.parentNode.replaceChild(e,c)}t.parentNode.removeChild(t);}}catch(u){}}()/* ]]&gt; */&lt;/script&gt;\nFormat settings, CABAC                   : Yes\nFormat settings, ReFrames                : 4 frames\nCodec ID                                 : avc1\nCodec ID/Info                            : Advanced Video Coding\nDuration                                 : 1h 27mn\nBit rate                                 : 1 400 Kbps\nWidth                                    : 832 pixels\nHeight                                   : 468 pixels\nDisplay aspect ratio                     : 16:9\nFrame rate mode                          : Constant\nFrame rate                               : 25.000 fps\nColor space                              : YUV\nChroma subsampling                       : 4:2:0\nBit depth                                : 8 bits\nScan type                                : Progressive\nBits/(Pixel*Frame)                       : 0.144\nStream size                              : 877 MiB (93%)\nWriting library                          : x264 core 123 r2189 35cf912\nEncoding settings                        : cabac=1 / ref=3 / deblock=1:0:0\n\nAudio\nID                                       : 2\nFormat                                   : AAC\nFormat/Info                              : Advanced Audio Codec\nFormat profile                           : HE-AAC / LC\nCodec ID                                 : 40\nDuration                                 : 1h 27mn\nBit rate mode                            : Variable\nBit rate                                 : 96.0 Kbps\nMaximum bit rate                         : 128 Kbps\nChannel(s)                               : 2 channels\nChannel positions                        : Front: L R\nSampling rate                            : 48.0 KHz / 24.0 KHz\nCompression mode                         : Lossy\nStream size                              : 59.3 MiB (6%)\nLanguage                                 : English","torrent":{"xt":"urn:btih:74c145ec926d3a16c06ac19e49071506748b4316","amp;dn":"Our+Girl+%282013%29+TV+Movie+pilot+-+Drama+x264+RB58","amp;tr":["udp%3A%2F%2Ftracker.openbittorrent.com%3A80","udp%3A%2F%2Fopen.demonii.com%3A1337","udp%3A%2F%2Ftracker.coppersurfer.tk%3A6969","udp%3A%2F%2Fexodus.desync.com%3A6969"],"infoHash":"74c145ec926d3a16c06ac19e49071506748b4316","infoHashBuffer":{"type":"Buffer","data":[116,193,69,236,146,109,58,22,192,106,193,158,73,7,21,6,116,139,67,22]},"announce":[],"urlList":[]}}